<svg xmlns="http://www.w3.org/2000/svg" xmlns:xlink="http://www.w3.org/1999/xlink" viewBox="0 0 75 75"><defs><linearGradient id="a" x1="29.45" y1="62.46" x2="29.45" y2="-0.58" gradientTransform="translate(-0.32 1.6)" gradientUnits="userSpaceOnUse"><stop offset="0" stop-color="#e0e0e0"/><stop offset="1" stop-color="#eee"/></linearGradient><linearGradient id="b" x1="40.66" y1="77.67" x2="40.66" y2="14.64" gradientTransform="translate(-1.38 -8.12)" xlink:href="#a"/></defs><title>case-icon</title><rect x="5.29" y="1.02" width="47.68" height="63.03" rx="0.56" ry="0.56" transform="translate(-1.13 1.05) rotate(-2.03)" style="fill:url(#a)"/><g style="opacity:0.5"><rect x="8.07" y="12.97" width="21.97" height="0.8" transform="matrix(1, -0.04, 0.04, 1, -0.46, 0.68)" style="fill:#9e9e9e"/><rect x="30.98" y="12.38" width="9.68" height="0.8" transform="translate(-0.43 1.27) rotate(-2.03)" style="fill:#9e9e9e"/><rect x="41.55" y="12.05" width="7.22" height="0.8" transform="translate(-0.41 1.6) rotate(-2.03)" style="fill:#9e9e9e"/></g><g style="opacity:0.5"><rect x="8.17" y="15.69" width="21.97" height="0.8" transform="translate(-0.56 0.69) rotate(-2.03)" style="fill:#9e9e9e"/><rect x="31.08" y="15.1" width="9.68" height="0.8" transform="translate(-0.53 1.28) rotate(-2.03)" style="fill:#9e9e9e"/><rect x="41.64" y="14.77" width="7.22" height="0.8" transform="translate(-0.51 1.61) rotate(-2.03)" style="fill:#9e9e9e"/></g><g style="opacity:0.5"><rect x="8.27" y="18.41" width="21.97" height="0.8" transform="translate(-0.65 0.69) rotate(-2.03)" style="fill:#9e9e9e"/><rect x="31.17" y="17.82" width="9.68" height="0.8" transform="translate(-0.62 1.28) rotate(-2.03)" style="fill:#9e9e9e"/><rect x="41.74" y="17.49" width="7.22" height="0.8" transform="translate(-0.6 1.61) rotate(-2.03)" style="fill:#9e9e9e"/></g><g style="opacity:0.5"><rect x="8.36" y="21.13" width="21.97" height="0.8" transform="translate(-0.75 0.7) rotate(-2.03)" style="fill:#9e9e9e"/><rect x="31.27" y="20.54" width="9.68" height="0.8" transform="translate(-0.72 1.29) rotate(-2.03)" style="fill:#9e9e9e"/><rect x="41.84" y="20.2" width="7.22" height="0.8" transform="translate(-0.7 1.62) rotate(-2.03)" style="fill:#9e9e9e"/></g><g style="opacity:0.5"><rect x="8.46" y="23.85" width="21.97" height="0.8" transform="matrix(1, -0.04, 0.04, 1, -0.85, 0.7)" style="fill:#9e9e9e"/><rect x="31.37" y="23.25" width="9.68" height="0.8" transform="translate(-0.81 1.29) rotate(-2.03)" style="fill:#9e9e9e"/><rect x="41.93" y="22.92" width="7.22" height="0.8" transform="translate(-0.8 1.62) rotate(-2.03)" style="fill:#9e9e9e"/></g><g style="opacity:0.5"><rect x="8.55" y="26.57" width="21.97" height="0.8" transform="translate(-0.94 0.71) rotate(-2.03)" style="fill:#9e9e9e"/><rect x="31.46" y="25.97" width="9.68" height="0.8" transform="translate(-0.91 1.3) rotate(-2.03)" style="fill:#9e9e9e"/><rect x="42.03" y="25.64" width="7.22" height="0.8" transform="translate(-0.89 1.63) rotate(-2.03)" style="fill:#9e9e9e"/></g><g style="opacity:0.5"><rect x="8.65" y="29.29" width="21.97" height="0.8" transform="matrix(1, -0.04, 0.04, 1, -1.04, 0.71)" style="fill:#9e9e9e"/><rect x="31.56" y="28.69" width="9.68" height="0.8" transform="translate(-1.01 1.31) rotate(-2.03)" style="fill:#9e9e9e"/><rect x="42.13" y="28.36" width="7.22" height="0.8" transform="translate(-0.99 1.64) rotate(-2.03)" style="fill:#9e9e9e"/></g><g style="opacity:0.5"><rect x="8.75" y="32.01" width="21.97" height="0.8" transform="translate(-1.13 0.72) rotate(-2.03)" style="fill:#9e9e9e"/><rect x="31.66" y="31.41" width="9.68" height="0.8" transform="translate(-1.1 1.31) rotate(-2.03)" style="fill:#9e9e9e"/><rect x="42.22" y="31.08" width="7.22" height="0.8" transform="translate(-1.08 1.64) rotate(-2.03)" style="fill:#9e9e9e"/></g><g style="opacity:0.5"><rect x="8.84" y="34.73" width="21.97" height="0.8" transform="translate(-1.23 0.72) rotate(-2.03)" style="fill:#9e9e9e"/><rect x="31.75" y="34.13" width="9.68" height="0.8" transform="translate(-1.2 1.32) rotate(-2.03)" style="fill:#9e9e9e"/><rect x="42.32" y="33.8" width="7.22" height="0.8" transform="translate(-1.18 1.65) rotate(-2.03)" style="fill:#9e9e9e"/></g><g style="opacity:0.5"><rect x="8.94" y="37.44" width="21.97" height="0.8" transform="translate(-1.33 0.73) rotate(-2.03)" style="fill:#9e9e9e"/><rect x="31.85" y="36.85" width="9.68" height="0.8" transform="translate(-1.29 1.32) rotate(-2.03)" style="fill:#9e9e9e"/><rect x="42.41" y="36.52" width="7.22" height="0.8" transform="translate(-1.28 1.65) rotate(-2.03)" style="fill:#9e9e9e"/></g><g style="opacity:0.5"><rect x="9.04" y="40.16" width="21.97" height="0.8" transform="translate(-1.42 0.73) rotate(-2.03)" style="fill:#9e9e9e"/><rect x="31.94" y="39.57" width="9.68" height="0.8" transform="translate(-1.39 1.33) rotate(-2.03)" style="fill:#9e9e9e"/><rect x="42.51" y="39.24" width="7.22" height="0.8" transform="translate(-1.37 1.66) rotate(-2.03)" style="fill:#9e9e9e"/></g><g style="opacity:0.5"><rect x="9.13" y="42.88" width="21.97" height="0.8" transform="translate(-1.52 0.74) rotate(-2.03)" style="fill:#9e9e9e"/><rect x="32.04" y="42.29" width="9.68" height="0.8" transform="translate(-1.49 1.33) rotate(-2.03)" style="fill:#9e9e9e"/><rect x="42.61" y="41.96" width="7.22" height="0.8" transform="translate(-1.47 1.66) rotate(-2.03)" style="fill:#9e9e9e"/></g><g style="opacity:0.5"><rect x="9.23" y="45.6" width="21.97" height="0.8" transform="translate(-1.61 0.74) rotate(-2.03)" style="fill:#9e9e9e"/><rect x="32.14" y="45.01" width="9.68" height="0.8" transform="translate(-1.58 1.34) rotate(-2.03)" style="fill:#9e9e9e"/><rect x="42.7" y="44.68" width="7.22" height="0.8" transform="translate(-1.56 1.67) rotate(-2.03)" style="fill:#9e9e9e"/></g><g style="opacity:0.5"><rect x="9.32" y="48.32" width="21.97" height="0.8" transform="translate(-1.71 0.75) rotate(-2.03)" style="fill:#9e9e9e"/><rect x="32.23" y="47.73" width="9.68" height="0.8" transform="translate(-1.68 1.34) rotate(-2.03)" style="fill:#9e9e9e"/><rect x="42.8" y="47.4" width="7.22" height="0.8" transform="translate(-1.66 1.67) rotate(-2.03)" style="fill:#9e9e9e"/></g><g style="opacity:0.5"><rect x="9.42" y="51.04" width="21.97" height="0.8" transform="translate(-1.81 0.75) rotate(-2.03)" style="fill:#9e9e9e"/><rect x="32.33" y="50.45" width="9.68" height="0.8" transform="translate(-1.77 1.35) rotate(-2.03)" style="fill:#9e9e9e"/><rect x="42.89" y="50.12" width="7.22" height="0.8" transform="translate(-1.76 1.68) rotate(-2.03)" style="fill:#9e9e9e"/></g><rect x="37.79" y="53.31" width="12.73" height="2.51" transform="translate(-1.9 1.6) rotate(-2.03)" style="fill:#9e9e9e"/><rect x="5.29" y="1.02" width="47.68" height="63.03" rx="0.56" ry="0.56" transform="translate(-1.13 1.05) rotate(-2.03)" style="opacity:0.15"/><rect x="15.44" y="6.51" width="47.68" height="63.03" rx="0.56" ry="0.56" transform="translate(12.08 -9.4) rotate(16.09)" style="fill:url(#b)"/><g style="opacity:0.5"><rect x="24.68" y="16.28" width="21.97" height="0.8" transform="matrix(0.96, 0.28, -0.28, 0.96, 6.02, -9.23)" style="fill:#9e9e9e"/><rect x="46.94" y="20.93" width="9.68" height="0.8" transform="translate(7.94 -13.52) rotate(16.09)" style="fill:#9e9e9e"/><rect x="57.15" y="23.52" width="7.22" height="0.8" transform="translate(9.01 -15.91) rotate(16.09)" style="fill:#9e9e9e"/></g><g style="opacity:0.5"><rect x="34.51" y="8.31" width="0.8" height="21.97" transform="translate(6.7 47.48) rotate(-73.91)" style="fill:#9e9e9e"/><rect x="50.63" y="19.1" width="0.8" height="9.68" transform="translate(13.88 66.33) rotate(-73.91)" style="fill:#9e9e9e"/><rect x="59.6" y="22.92" width="0.8" height="7.22" transform="translate(17.88 76.83) rotate(-73.91)" style="fill:#9e9e9e"/></g><g style="opacity:0.5"><rect x="33.75" y="10.92" width="0.8" height="21.97" transform="translate(3.64 48.65) rotate(-73.91)" style="fill:#9e9e9e"/><rect x="49.87" y="21.72" width="0.8" height="9.68" transform="translate(10.82 67.5) rotate(-73.91)" style="fill:#9e9e9e"/><rect x="58.85" y="25.53" width="0.8" height="7.22" transform="translate(14.82 77.99) rotate(-73.91)" style="fill:#9e9e9e"/></g><g style="opacity:0.5"><rect x="33" y="13.54" width="0.8" height="21.97" transform="translate(0.58 49.81) rotate(-73.91)" style="fill:#9e9e9e"/><rect x="49.12" y="24.33" width="0.8" height="9.68" transform="translate(7.77 68.66) rotate(-73.91)" style="fill:#9e9e9e"/><rect x="58.09" y="28.15" width="0.8" height="7.22" transform="translate(11.77 79.16) rotate(-73.91)" style="fill:#9e9e9e"/></g><g style="opacity:0.5"><rect x="32.25" y="16.15" width="0.8" height="21.97" transform="matrix(0.28, -0.96, 0.96, 0.28, -2.47, 50.98)" style="fill:#9e9e9e"/><rect x="48.36" y="26.94" width="0.8" height="9.68" transform="translate(4.71 69.83) rotate(-73.91)" style="fill:#9e9e9e"/><rect x="57.34" y="30.76" width="0.8" height="7.22" transform="translate(8.71 80.32) rotate(-73.91)" style="fill:#9e9e9e"/></g><g style="opacity:0.5"><rect x="31.49" y="18.76" width="0.8" height="21.97" transform="translate(-5.53 52.14) rotate(-73.91)" style="fill:#9e9e9e"/><rect x="47.61" y="29.56" width="0.8" height="9.68" transform="translate(1.65 70.99) rotate(-73.91)" style="fill:#9e9e9e"/><rect x="56.59" y="33.38" width="0.8" height="7.22" transform="translate(5.65 81.49) rotate(-73.91)" style="fill:#9e9e9e"/></g><g style="opacity:0.5"><rect x="30.74" y="21.38" width="0.8" height="21.97" transform="translate(-8.59 53.31) rotate(-73.91)" style="fill:#9e9e9e"/><rect x="46.85" y="32.17" width="0.8" height="9.68" transform="translate(-1.41 72.16) rotate(-73.91)" style="fill:#9e9e9e"/><rect x="55.83" y="35.99" width="0.8" height="7.22" transform="translate(2.59 82.65) rotate(-73.91)" style="fill:#9e9e9e"/></g><g style="opacity:0.5"><rect x="29.98" y="23.99" width="0.8" height="21.97" transform="translate(-11.65 54.47) rotate(-73.91)" style="fill:#9e9e9e"/><rect x="46.1" y="34.79" width="0.8" height="9.68" transform="translate(-4.46 73.32) rotate(-73.91)" style="fill:#9e9e9e"/><rect x="55.08" y="38.61" width="0.8" height="7.22" transform="matrix(0.28, -0.96, 0.96, 0.28, -0.46, 83.82)" style="fill:#9e9e9e"/></g><g style="opacity:0.5"><rect x="29.23" y="26.61" width="0.8" height="21.97" transform="translate(-14.7 55.64) rotate(-73.91)" style="fill:#9e9e9e"/><rect x="45.35" y="37.4" width="0.8" height="9.68" transform="translate(-7.52 74.49) rotate(-73.91)" style="fill:#9e9e9e"/><rect x="54.32" y="41.22" width="0.8" height="7.22" transform="translate(-3.52 84.98) rotate(-73.91)" style="fill:#9e9e9e"/></g><g style="opacity:0.5"><rect x="28.47" y="29.22" width="0.8" height="21.97" transform="translate(-17.76 56.8) rotate(-73.91)" style="fill:#9e9e9e"/><rect x="44.59" y="40.02" width="0.8" height="9.68" transform="translate(-10.58 75.65) rotate(-73.91)" style="fill:#9e9e9e"/><rect x="53.57" y="43.83" width="0.8" height="7.22" transform="translate(-6.58 86.15) rotate(-73.91)" style="fill:#9e9e9e"/></g><g style="opacity:0.5"><rect x="27.72" y="31.84" width="0.8" height="21.97" transform="translate(-20.82 57.97) rotate(-73.91)" style="fill:#9e9e9e"/><rect x="43.84" y="42.63" width="0.8" height="9.68" transform="translate(-13.63 76.82) rotate(-73.91)" style="fill:#9e9e9e"/><rect x="52.81" y="46.45" width="0.8" height="7.22" transform="translate(-9.63 87.31) rotate(-73.91)" style="fill:#9e9e9e"/></g><g style="opacity:0.5"><rect x="26.97" y="34.45" width="0.8" height="21.97" transform="translate(-23.87 59.13) rotate(-73.91)" style="fill:#9e9e9e"/><rect x="43.08" y="45.24" width="0.8" height="9.68" transform="translate(-16.69 77.98) rotate(-73.91)" style="fill:#9e9e9e"/><rect x="52.06" y="49.06" width="0.8" height="7.22" transform="translate(-12.69 88.48) rotate(-73.91)" style="fill:#9e9e9e"/></g><g style="opacity:0.5"><rect x="26.21" y="37.07" width="0.8" height="21.97" transform="translate(-26.93 60.3) rotate(-73.91)" style="fill:#9e9e9e"/><rect x="42.33" y="47.86" width="0.8" height="9.68" transform="translate(-19.75 79.15) rotate(-73.91)" style="fill:#9e9e9e"/><rect x="51.31" y="51.68" width="0.8" height="7.22" transform="translate(-15.75 89.64) rotate(-73.91)" style="fill:#9e9e9e"/></g><g style="opacity:0.5"><rect x="25.46" y="39.68" width="0.8" height="21.97" transform="translate(-29.99 61.46) rotate(-73.91)" style="fill:#9e9e9e"/><rect x="41.57" y="50.47" width="0.8" height="9.68" transform="matrix(0.28, -0.96, 0.96, 0.28, -22.81, 80.31)" style="fill:#9e9e9e"/><rect x="50.55" y="54.29" width="0.8" height="7.22" transform="translate(-18.81 90.81) rotate(-73.91)" style="fill:#9e9e9e"/></g><g style="opacity:0.5"><rect x="14.12" y="52.88" width="21.97" height="0.8" transform="translate(15.75 -4.87) rotate(16.09)" style="fill:#9e9e9e"/><rect x="36.38" y="57.53" width="9.68" height="0.8" transform="translate(17.67 -9.16) rotate(16.09)" style="fill:#9e9e9e"/><rect x="46.59" y="60.12" width="7.22" height="0.8" transform="translate(18.74 -11.54) rotate(16.09)" style="fill:#9e9e9e"/></g><rect x="40.34" y="62.38" width="12.73" height="2.51" transform="translate(19.47 -10.45) rotate(16.09)" style="fill:#9e9e9e"/></svg>