<svg xmlns="http://www.w3.org/2000/svg" xmlns:xlink="http://www.w3.org/1999/xlink" viewBox="0 0 500 300"><defs><linearGradient id="a" x1="329.85" y1="78.79" x2="358.46" y2="50.18" gradientTransform="translate(-33.65 129.09)" gradientUnits="userSpaceOnUse"><stop offset="0" stop-color="#3870c4" stop-opacity="0.3"/><stop offset="1" stop-color="#3870c4" stop-opacity="0.2"/></linearGradient><linearGradient id="b" x1="158.67" y1="77.15" x2="217.52" y2="18.3" gradientTransform="translate(58.89 2.32)" xlink:href="#a"/><linearGradient id="c" x1="193.05" y1="123.79" x2="326.05" y2="123.79" gradientTransform="translate(-1.96 1.9)" gradientUnits="userSpaceOnUse"><stop offset="0" stop-color="#e5e6ea"/><stop offset="1" stop-color="#edf1f5"/></linearGradient><linearGradient id="d" x1="44.92" y1="112.99" x2="108.25" y2="49.66" gradientTransform="translate(9.75 7.75)" xlink:href="#a"/><linearGradient id="e" x1="48.27" y1="210.71" x2="84.99" y2="174" gradientTransform="translate(44.43 49.88)" xlink:href="#a"/><linearGradient id="f" x1="337.85" y1="80.1" x2="365.79" y2="52.15" gradientTransform="translate(71.11 178.06)" xlink:href="#a"/><linearGradient id="g" x1="260.15" y1="-90.21" x2="307.46" y2="-137.52" gradientTransform="translate(150.98 166)" xlink:href="#a"/></defs><title>form-state</title><rect x="296.19" y="179.27" width="28.61" height="28.61" transform="translate(322.89 -172.11) rotate(60)" style="stroke:#3870c4;stroke-miterlimit:10;stroke-width:2px;fill:url(#a)"/><rect x="217.56" y="20.62" width="58.85" height="58.85" transform="translate(166.83 -188.88) rotate(60)" style="stroke:#3870c4;stroke-miterlimit:10;stroke-width:2px;fill:url(#b)"/><rect x="191.09" y="38.94" width="133" height="173.5" transform="translate(33.81 -53.39) rotate(12.66)" style="stroke:#cfd0d4;stroke-miterlimit:10;stroke-width:0.5px;fill:url(#c)"/><rect x="215.47" y="43.25" width="35.5" height="37.37" transform="translate(19.24 -49.6) rotate(12.66)" style="fill:#afafaf;opacity:0.5"/><rect x="258.64" y="56.34" width="69.33" height="4.78" transform="translate(20 -62.85) rotate(12.66)" style="fill:#afafaf;opacity:0.5"/><rect x="256.01" y="68.01" width="69.33" height="4.78" transform="translate(22.49 -61.99) rotate(12.66)" style="fill:#afafaf;opacity:0.5"/><rect x="253.64" y="77.41" width="48.67" height="4.78" transform="translate(24.24 -58.98) rotate(12.66)" style="fill:#afafaf;opacity:0.5"/><rect x="204.46" y="92.27" width="35.5" height="37.37" transform="translate(29.72 -46) rotate(12.66)" style="fill:#afafaf;opacity:0.5"/><rect x="247.63" y="105.36" width="69.33" height="4.78" transform="translate(30.47 -59.24) rotate(12.66)" style="fill:#afafaf;opacity:0.5"/><rect x="245" y="117.03" width="69.33" height="4.78" transform="translate(32.97 -58.38) rotate(12.66)" style="fill:#afafaf;opacity:0.5"/><rect x="242.63" y="126.44" width="48.67" height="4.78" transform="translate(34.72 -55.37) rotate(12.66)" style="fill:#afafaf;opacity:0.5"/><g style="opacity:0.5"><path d="M198.73,139.05l105.7,23.74-8.94,39.81-105.7-23.74,8.94-39.81m-.75-1.19-9.38,41.76L296.25,203.8,305.63,162,198,137.86Z" style="fill:#b9babe"/></g><path d="M251.59,165.25a3.19,3.19,0,0,0-2.58-4.08,5.45,5.45,0,0,0-4.4,1.08l-1.29-1.84a8,8,0,0,1,6.55-1.53c3.48.79,5.3,3.42,4.54,6.8-1,4.53-7,5.1-7.5,10l-2.51-.56C244.87,169.64,250.77,168.9,251.59,165.25Zm-9.06,14.86a2.1,2.1,0,1,1,1.57,2.6A2.11,2.11,0,0,1,242.53,180.11Z" style="fill:#3870c4"/><ellipse cx="250" cy="274.25" rx="77" ry="7.74" style="opacity:0.1"/><rect x="54.67" y="57.41" width="63.33" height="63.33" transform="matrix(0.95, -0.32, 0.32, 0.95, -23.99, 32.36)" style="stroke:#3870c4;stroke-miterlimit:10;stroke-width:2px;fill:url(#d)"/><rect x="92.7" y="223.88" width="36.71" height="36.71" transform="translate(109.21 -24.24) rotate(24.23)" style="stroke:#3870c4;stroke-miterlimit:10;stroke-width:2px;fill:url(#e)"/><rect x="408.96" y="230.21" width="27.95" height="27.95" transform="translate(137.48 -152.07) rotate(24.23)" style="stroke:#3870c4;stroke-miterlimit:10;stroke-width:2px;fill:url(#f)"/><rect x="411.12" y="28.48" width="47.31" height="47.31" transform="translate(262.54 -350.46) rotate(60)" style="stroke:#3870c4;stroke-miterlimit:10;stroke-width:2px;fill:url(#g)"/><path d="M106.33,128.82c16.67,12.85,45.34,26.91,58,29.88" style="fill:none;stroke:#b9babe;stroke-miterlimit:10;stroke-width:4px"/><polyline points="140.33 170.83 164.33 158.7 155 135.33" style="fill:none;stroke:#b9babe;stroke-miterlimit:10;stroke-width:4px"/><path d="M142.41,238.43c12.05-6.43,28-19.63,33.16-26.33" style="fill:none;stroke:#b9babe;stroke-miterlimit:10;stroke-width:4px"/><polyline points="176.34 229.54 175.57 212.1 159.26 211.38" style="fill:none;stroke:#b9babe;stroke-miterlimit:10;stroke-width:4px"/><path d="M400.14,227.18c-17.82-4.63-42.93-16.9-51.78-24.07" style="fill:none;stroke:#b9babe;stroke-miterlimit:10;stroke-width:4px"/><polyline points="352.85 226.21 348.36 203.11 369.52 197.03" style="fill:none;stroke:#b9babe;stroke-miterlimit:10;stroke-width:4px"/><path d="M407.41,65.76c-15.83,17.67-44.71,39.18-58.14,45.08" style="fill:none;stroke:#b9babe;stroke-miterlimit:10;stroke-width:4px"/><polyline points="378.38 119.34 349.27 110.84 354.8 83.01" style="fill:none;stroke:#b9babe;stroke-miterlimit:10;stroke-width:4px"/></svg>