<svg xmlns="http://www.w3.org/2000/svg" width="116" height="116" viewBox="0 0 116 116">
  <metadata><?xpacket begin="﻿" id="W5M0MpCehiHzreSzNTczkc9d"?>
<x:xmpmeta xmlns:x="adobe:ns:meta/" x:xmptk="Adobe XMP Core 5.6-c142 79.160924, 2017/07/13-01:06:39        ">
   <rdf:RDF xmlns:rdf="http://www.w3.org/1999/02/22-rdf-syntax-ns#">
      <rdf:Description rdf:about=""/>
   </rdf:RDF>
</x:xmpmeta>
                                                                                                    
                                                                                                    
                                                                                                    
                                                                                                    
                                                                                                    
                                                                                                    
                                                                                                    
                                                                                                    
                                                                                                    
                                                                                                    
                                                                                                    
                                                                                                    
                                                                                                    
                                                                                                    
                                                                                                    
                                                                                                    
                                                                                                    
                                                                                                    
                                                                                                    
                                                                                                    
                           
<?xpacket end="w"?></metadata>
<defs>
    <style>
      .cls-1 {
        fill: #0af;
      }

      .cls-2 {
        fill: #fff;
        fill-rule: evenodd;
      }
    </style>
  </defs>
  <circle class="cls-1" cx="58" cy="58" r="58"/>
  <path class="cls-2" d="M56.37,54.6c0.467-1.208-.132-1.813-0.666-1.813-2.463,0-5.659,5.847-6.855,5.847a0.935,0.935,0,0,1-.866-0.874c0-1.21,2.928-4.032,3.794-4.906a14.7,14.7,0,0,1,9.984-4.5c2.863,0,5.925,1.746,3.528,8.267L60.5,69.727a12.9,12.9,0,0,0-1.13,3.765,0.847,0.847,0,0,0,.8.941c2,0,5.659-5.713,6.591-5.713a0.969,0.969,0,0,1,.8,1.008c0,1.949-7.787,10.283-14.51,10.283-2.4,0-4.061-1.141-4.061-3.7,0-3.226,2.263-8.737,2.73-9.881Zm3.594-13.24a5.481,5.481,0,0,1,5.458-5.375,4.37,4.37,0,0,1,4.594,4.57,5.409,5.409,0,0,1-5.524,5.378A4.285,4.285,0,0,1,59.964,41.365Z"/>
</svg>
